<svg xmlns="http://www.w3.org/2000/svg" viewBox="5.5 5.5 53 53" width="64" height="64" role="img" aria-label="Controller">
  <!-- dimOS app icon set v6: dark glass tile tinted to the glyph, neon gradient glyph with a soft bloom -->
  <defs>
    <radialGradient id="tile" cx=".5" cy=".18" r=".95"><stop offset="0" stop-color="#08223a"/><stop offset="1" stop-color="#07070f"/></radialGradient>
    <linearGradient id="sheen" x1="0" y1="0" x2="0" y2="1"><stop offset="0" stop-color="#fff" stop-opacity=".13"/><stop offset="1" stop-color="#fff" stop-opacity="0"/></linearGradient>
    <linearGradient id="rim" x1="0" y1="0" x2="0" y2="1"><stop offset="0" stop-color="#fff" stop-opacity=".45"/><stop offset=".25" stop-color="#fff" stop-opacity=".1"/><stop offset="1" stop-color="#fff" stop-opacity=".06"/></linearGradient>
    <filter id="bloom" x="-50%" y="-50%" width="200%" height="200%"><feGaussianBlur stdDeviation="2.4"/></filter>
    <linearGradient id="a" gradientUnits="userSpaceOnUse" x1="0" y1="14" x2="0" y2="50"><stop offset="0" stop-color="#a6fbff"/><stop offset="1" stop-color="#3d7bff"/></linearGradient><mask id="btn"><rect width="64" height="64" fill="#fff"/>
      <path d="M17.5 24v10M12.5 29h10" stroke="#000" stroke-width="3.4" stroke-linecap="round"/>
      <circle cx="44" cy="25.5" r="2.6" fill="#000"/><circle cx="49.5" cy="31" r="2.6" fill="#000"/><circle cx="38.5" cy="31" r="2.6" fill="#000"/></mask>
    <g id="glyph"><g transform="translate(32 31) scale(.62) translate(-32 -31)"><path d="M19.5 17h25a12 12 0 0 1 11.7 9.4l2.6 12.6a6.4 6.4 0 0 1-10.9 5.7L42.5 39.5h-21l-5.4 5.2A6.4 6.4 0 0 1 5.2 39l2.6-12.6A12 12 0 0 1 19.5 17Z" fill="url(#a)" mask="url(#btn)"/></g></g>
    <linearGradient id="scanrow" x1="0" y1="0" x2="0" y2="1"><stop offset="0" stop-color="#fff"/><stop offset=".25" stop-color="#e2e2e2"/><stop offset=".5" stop-color="#c2c2c2"/><stop offset=".75" stop-color="#e2e2e2"/><stop offset="1" stop-color="#fff"/></linearGradient>
    <pattern id="scan" width="64" height="3.6" patternUnits="userSpaceOnUse"><rect width="64" height="3.6" fill="url(#scanrow)"/></pattern>
    <mask id="scanlines" maskUnits="userSpaceOnUse" x="-16" y="-16" width="96" height="96"><rect x="-16" y="-16" width="96" height="96" fill="url(#scan)"/></mask>
    <filter id="core" x="-20%" y="-20%" width="140%" height="140%"><feMorphology in="SourceAlpha" operator="erode" radius="0.9" result="e"/><feGaussianBlur in="e" stdDeviation="0.45" result="eb"/><feFlood flood-color="#fffaf0" flood-opacity=".78"/><feComposite in2="eb" operator="in" result="c"/><feMerge><feMergeNode in="SourceGraphic"/><feMergeNode in="c"/></feMerge></filter>
  </defs><g stroke="#8b5cff" stroke-width=".8" opacity=".45"><path d="M10 50H54M6 55H58M14 46.5H50M32 42L18 60M32 42L46 60M32 42V60"/></g>
  <g transform="translate(32 32) scale(1.12) translate(-32 -32)">
    <use href="#glyph" filter="url(#bloom)"/>
    <g mask="url(#scanlines)"><use href="#glyph" filter="url(#core)"/></g>
  </g>
</svg>
