<svg xmlns="http://www.w3.org/2000/svg" viewBox="-3 -3 70 70" width="64" height="64" role="img" aria-label="Robot dog">
<!-- dimOS robot-type icon (research), X2 set. Based on "robot dog" by Izwar Muis, Noun Project, CC BY 3.0 (modified). -->
<defs><pattern id="ri-dog-research-scan" patternUnits="userSpaceOnUse" width="64" height="2.4"><rect width="64" height="1.008" fill="#293ce4"/></pattern><linearGradient id="ri-dog-research-duo" gradientUnits="userSpaceOnUse" x1="0" y1="4" x2="0" y2="60"><stop offset="0" stop-color="#293ce4" stop-opacity="0.16"/><stop offset="1" stop-color="#293ce4" stop-opacity="0.03"/></linearGradient><linearGradient id="ri-dog-research-ln" gradientUnits="userSpaceOnUse" x1="0" y1="4" x2="0" y2="60"><stop offset="0" stop-color="#1a1d2e"/><stop offset="1" stop-color="#2b3678"/></linearGradient><filter id="ri-dog-research-bn" filterUnits="userSpaceOnUse" x="-16" y="-16" width="96" height="96"><feGaussianBlur stdDeviation="1.1"/></filter><g id="ri-dog-research-lf"><path d="M4.28,12.02 C3.18,12.34 2.36,13.15 2.02,14.24 C1.9,14.66 1.9,19.22 2.02,19.71 C2.32,20.82 3.18,21.67 4.35,21.99 C4.52,22.04 5.4,22.06 6.86,22.06 L9.12,22.06 L8.96,22.51 C8.88,22.76 8.78,23.03 8.74,23.11 C8.69,23.24 8.62,23.41 8.51,23.7 C8.32,24.18 7.71,25.44 7.41,25.97 C7.01,26.7 6.93,26.83 6.55,27.39 C5.53,28.92 4.62,29.98 4.26,30.04 C3.87,30.11 3.3,30.45 2.87,30.88 C1.88,31.86 1.67,33.17 2.29,34.41 C2.47,34.76 2.75,35.05 4.34,36.53 C5.28,37.4 6.48,38.74 7.29,39.82 C7.93,40.68 8.56,41.59 8.56,41.66 C8.56,41.68 8.61,41.77 8.68,41.86 C8.97,42.27 9.62,43.56 9.88,44.22 C9.9,44.29 9.95,44.41 9.99,44.5 C10.53,45.8 10.94,47.77 10.94,49.05 C10.94,50.64 12.39,52.07 14.01,52.06 C15.62,52.05 17.06,50.61 17.06,49.02 C17.07,47.83 16.7,45.32 16.38,44.31 C16.35,44.22 16.29,44.03 16.25,43.88 C16.16,43.56 16.07,43.28 16,43.09 C15.98,43.02 15.92,42.87 15.88,42.75 C15.8,42.53 15.75,42.4 15.62,42.08 C15.58,41.98 15.53,41.85 15.5,41.78 C15.29,41.26 14.19,39.1 13.94,38.75 C13.87,38.65 13.81,38.56 13.81,38.54 C13.81,38.47 12.71,36.85 12.23,36.2 C10.88,34.4 8.8,32.18 7.28,30.92 C6.83,30.54 6.84,30.57 7.04,30.29 C7.14,30.17 7.38,29.86 7.57,29.61 C7.94,29.13 8.41,28.42 8.72,27.91 C8.83,27.74 8.98,27.48 9.08,27.32 C9.46,26.69 10.24,25.03 10.59,24.12 C10.72,23.8 10.85,23.47 10.88,23.41 C10.95,23.24 11.25,22.34 11.32,22.07 C11.35,21.97 11.4,21.78 11.43,21.67 C11.56,21.22 11.8,20.26 11.87,19.91 C11.91,19.7 11.98,19.43 12.01,19.31 C12.04,19.18 12.06,18.99 12.06,18.89 C12.06,17.47 13.84,16.57 15.03,17.38 C15.89,17.97 16.14,18.81 15.75,19.84 C15.72,19.91 15.67,20.07 15.62,20.19 C15.58,20.31 15.53,20.47 15.49,20.54 C15.46,20.62 15.41,20.76 15.38,20.84 C15.34,20.93 15.29,21.06 15.26,21.14 C15.19,21.29 15.06,21.62 14.9,21.98 C14.73,22.38 13.64,24.57 13.41,24.97 C13.03,25.67 12.93,25.84 12.81,26.01 C12.74,26.1 12.69,26.19 12.69,26.22 C12.69,26.24 12.6,26.38 12.5,26.53 C12.39,26.68 12.31,26.82 12.31,26.84 C12.31,26.88 11.89,27.51 11.31,28.34 C11.26,28.41 10.83,29 10.34,29.66 C9.86,30.31 9.43,30.92 9.39,31.02 C9.17,31.53 9.46,32.09 10.08,32.36 C10.65,32.61 11.03,32.33 12.12,30.84 C12.38,30.5 12.66,30.12 12.75,30 C12.99,29.69 14.19,27.89 14.19,27.84 C14.19,27.82 14.27,27.69 14.37,27.54 C14.88,26.8 16.17,24.41 16.59,23.43 C16.73,23.11 16.98,22.55 17.11,22.26 L17.2,22.06 L18.19,22.06 C19.11,22.06 19.52,22.11 19.97,22.29 C20.04,22.31 20.29,22.47 20.53,22.62 C21.51,23.27 22.21,23.66 22.78,23.84 C23.46,24.06 23.57,24.06 32.55,24.06 C39.52,24.06 41.31,24.08 41.31,24.14 C41.31,24.37 40.22,26.39 39.58,27.36 C38.51,28.96 37.63,29.97 37.26,30.04 C36.87,30.11 36.29,30.45 35.87,30.88 C34.88,31.86 34.67,33.17 35.29,34.41 C35.47,34.76 35.72,35.01 37.38,36.56 C38.68,37.77 40.23,39.62 41.23,41.12 C41.51,41.54 41.63,41.74 42.01,42.41 C42.14,42.63 42.58,43.51 42.71,43.81 C42.76,43.93 42.86,44.16 42.93,44.33 C43,44.49 43.06,44.65 43.06,44.69 C43.06,44.72 43.09,44.8 43.12,44.86 C43.46,45.47 43.94,47.92 43.94,49.01 C43.94,50.64 45.38,52.07 47.01,52.06 C48.63,52.05 50.06,50.61 50.06,48.99 C50.06,48.34 49.89,46.62 49.74,45.88 C49.66,45.44 49.44,44.52 49.38,44.31 C49.35,44.22 49.29,44.03 49.25,43.88 C49.07,43.24 48.93,42.82 48.62,42.08 C48.58,41.98 48.53,41.85 48.5,41.78 C48.33,41.34 47.74,40.13 47.44,39.59 C47.36,39.46 47.24,39.25 47.18,39.14 C47.11,39.03 47.01,38.84 46.94,38.72 C46.88,38.61 46.71,38.34 46.59,38.14 C46.46,37.94 46.28,37.67 46.19,37.53 C46.03,37.27 45.96,37.17 45.31,36.31 C44.66,35.43 44.54,35.29 44.08,34.74 C42.94,33.41 40.96,31.44 40.07,30.74 L39.85,30.57 L40.02,30.33 C40.11,30.2 40.31,29.95 40.44,29.78 C40.72,29.44 41.69,28.02 41.69,27.96 C41.69,27.94 41.74,27.85 41.81,27.76 C42.21,27.18 43.14,25.31 43.59,24.12 C43.72,23.8 43.85,23.47 43.88,23.41 C43.95,23.24 44.25,22.33 44.33,22.06 C44.36,21.94 44.41,21.76 44.44,21.66 C44.55,21.26 44.79,20.26 44.87,19.91 C44.91,19.7 44.98,19.43 45.01,19.31 C45.04,19.18 45.06,18.99 45.06,18.89 C45.06,17.47 46.84,16.57 48.03,17.38 C48.89,17.97 49.14,18.81 48.75,19.84 C48.72,19.91 48.67,20.07 48.62,20.19 C48.58,20.31 48.53,20.47 48.49,20.54 C48.46,20.62 48.41,20.75 48.38,20.82 C48.35,20.91 48.27,21.1 48.19,21.26 C48.12,21.42 48.06,21.57 48.06,21.59 C48.06,21.69 46.66,24.56 46.33,25.12 C46.16,25.43 46,25.7 45.82,26.02 C45.75,26.14 45.54,26.48 45.36,26.76 C45.18,27.04 44.91,27.45 44.78,27.66 C44.44,28.19 43.63,29.31 42.89,30.26 C42.44,30.84 42.31,31.09 42.31,31.38 C42.31,32.15 43.22,32.7 43.85,32.32 C44.18,32.12 46.05,29.71 46.66,28.7 C46.69,28.64 46.85,28.39 47.02,28.14 C47.18,27.89 47.31,27.67 47.31,27.66 C47.31,27.63 47.39,27.49 47.5,27.34 C47.6,27.19 47.69,27.06 47.69,27.04 C47.69,27.02 47.79,26.83 47.93,26.62 C48.19,26.18 48.54,25.54 48.99,24.66 L49.29,24.09 L53.25,24.08 C57.47,24.06 57.36,24.07 57.71,23.75 C57.94,23.54 57.83,23.8 60.03,18.28 C61.08,15.63 61.98,13.42 62.01,13.36 C62.22,12.96 61.94,12.32 61.43,12.06 C61.2,11.94 60.59,11.94 32.86,11.94 C11.87,11.95 4.47,11.97 4.28,12.02 Z M55.44,14.09 C55.44,14.11 55.41,14.17 55.38,14.24 C55.33,14.35 55.21,14.62 55.12,14.86 C55.09,14.94 55.03,15.07 54.99,15.17 C54.95,15.27 54.89,15.41 54.87,15.48 C54.84,15.56 54.79,15.69 54.75,15.78 C54.72,15.87 54.66,16 54.63,16.07 C54.6,16.16 54.52,16.35 54.44,16.51 C54.37,16.67 54.31,16.83 54.31,16.86 C54.31,16.89 54.26,17.03 54.19,17.17 C54.12,17.31 54.06,17.46 54.06,17.49 C54.06,17.51 54.01,17.66 53.94,17.8 C53.87,17.94 53.81,18.08 53.81,18.11 C53.81,18.14 53.76,18.28 53.69,18.42 C53.62,18.56 53.56,18.71 53.56,18.74 C53.56,18.76 53.51,18.91 53.44,19.05 C53.37,19.19 53.31,19.33 53.31,19.36 C53.31,19.39 53.26,19.53 53.19,19.67 C53.12,19.81 53.06,19.97 53.06,20.02 C53.06,20.06 53.04,20.12 53.01,20.16 C52.98,20.19 52.86,20.46 52.75,20.75 C52.64,21.04 52.49,21.4 52.43,21.54 C52.36,21.69 52.31,21.84 52.31,21.88 C52.31,21.91 51.94,21.94 51.28,21.94 C50.71,21.94 50.25,21.92 50.25,21.91 C50.25,21.89 50.28,21.81 50.32,21.71 C51.05,19.85 51.18,19.19 50.98,18.25 C50.7,16.96 49.91,15.94 48.77,15.38 C48.56,15.27 48.35,15.19 48.31,15.19 C48.28,15.19 48.2,15.16 48.14,15.13 C47.77,14.94 46.78,14.88 46.29,15.01 C45.64,15.17 45.51,15.22 45.11,15.42 C44.58,15.69 43.82,16.39 43.54,16.87 C43.19,17.46 43.11,17.74 42.93,18.75 C42.79,19.62 42.61,20.35 42.31,21.44 C42.27,21.56 42.23,21.72 42.21,21.79 L42.18,21.94 L32.98,21.94 C23.18,21.94 23.61,21.95 22.96,21.65 C22.83,21.59 22.52,21.41 22.28,21.24 C20.79,20.25 19.91,19.94 18.57,19.94 C17.93,19.94 17.93,19.94 17.97,19.79 C18.12,19.34 18.06,18.39 17.86,17.78 C17.31,16.12 15.7,14.94 14,14.94 C13.38,14.94 12.75,15.1 12.09,15.43 C11.66,15.65 10.56,16.64 10.56,16.81 C10.56,16.86 10.51,16.96 10.45,17.05 C10.27,17.31 10.13,17.71 10.03,18.27 C9.84,19.29 9.8,19.47 9.74,19.7 L9.68,19.94 L7.26,19.94 C4.69,19.94 4.54,19.92 4.31,19.64 C4.08,19.37 4.06,19.22 4.06,16.97 C4.06,14.42 4.07,14.39 4.62,14.14 C4.78,14.07 55.44,14.02 55.44,14.09 Z M59.44,14.09 C59.44,14.11 59.41,14.17 59.38,14.24 C59.35,14.29 59.29,14.42 59.26,14.51 C59.22,14.61 59.16,14.76 59.12,14.86 C59.08,14.96 59.02,15.09 58.99,15.17 C58.96,15.25 58.91,15.39 58.87,15.48 C58.83,15.58 58.77,15.72 58.74,15.79 C58.71,15.88 58.66,16.01 58.62,16.09 C58.59,16.18 58.54,16.32 58.5,16.41 C58.47,16.49 58.41,16.64 58.37,16.73 C58.28,16.96 58.19,17.18 58.12,17.36 C58.09,17.44 58.03,17.57 57.99,17.67 C57.95,17.77 57.89,17.91 57.87,17.98 C57.8,18.16 57.71,18.39 57.62,18.61 C57.58,18.71 57.52,18.84 57.49,18.92 C57.46,19 57.41,19.13 57.38,19.22 C57.34,19.31 57.29,19.44 57.25,19.53 C57.22,19.62 57.16,19.76 57.12,19.86 C57.03,20.08 56.94,20.31 56.87,20.48 C56.84,20.56 56.79,20.69 56.75,20.78 C56.72,20.87 56.66,21.01 56.62,21.11 C56.58,21.21 56.53,21.34 56.5,21.41 C56.47,21.47 56.41,21.62 56.36,21.73 L56.28,21.94 L55.43,21.94 C54.95,21.94 54.56,21.92 54.56,21.91 C54.56,21.89 54.59,21.82 54.62,21.76 C54.67,21.66 54.73,21.54 54.88,21.16 C54.91,21.07 54.97,20.93 55,20.84 C55.04,20.76 55.09,20.62 55.12,20.53 C55.16,20.44 55.22,20.31 55.25,20.22 C55.29,20.13 55.34,19.99 55.38,19.89 C55.49,19.62 55.58,19.42 55.62,19.28 C55.65,19.21 55.71,19.07 55.75,18.97 C55.79,18.86 55.86,18.71 55.89,18.62 C55.93,18.54 55.98,18.41 56,18.34 C56.03,18.27 56.08,18.13 56.12,18.03 C56.17,17.92 56.23,17.79 56.25,17.72 C56.28,17.65 56.33,17.52 56.37,17.42 C56.41,17.32 56.46,17.19 56.49,17.11 C56.52,17.03 56.58,16.89 56.62,16.79 C56.66,16.7 56.71,16.56 56.74,16.48 C56.77,16.41 56.83,16.26 56.88,16.16 C56.92,16.05 56.98,15.91 57.01,15.82 C57.04,15.75 57.09,15.61 57.13,15.51 C57.18,15.42 57.23,15.27 57.27,15.19 C57.3,15.1 57.36,14.96 57.39,14.88 C57.43,14.79 57.48,14.66 57.5,14.59 C57.53,14.52 57.59,14.38 57.64,14.26 L57.72,14.06 L58.58,14.06 C59.05,14.06 59.44,14.07 59.44,14.09 Z M5.39,32.16 C6.01,32.49 8.32,34.73 9.54,36.19 C10.74,37.64 11.45,38.63 12.19,39.91 C12.24,40.01 12.38,40.23 12.48,40.41 C12.88,41.08 13.62,42.72 13.88,43.44 C13.92,43.56 13.98,43.71 14,43.78 C14.08,43.97 14.26,44.57 14.31,44.81 C14.34,44.93 14.39,45.13 14.43,45.25 C14.46,45.37 14.52,45.58 14.55,45.7 L14.61,45.94 L13.66,45.94 L12.7,45.94 L12.64,45.76 C12.61,45.67 12.54,45.47 12.5,45.31 C12.4,44.95 12.19,44.32 12.12,44.16 C12.1,44.09 12.03,43.91 11.97,43.75 C11.66,42.92 10.81,41.22 10.38,40.59 C10.29,40.46 10.19,40.3 10.18,40.25 C10.14,40.14 9.49,39.23 8.87,38.41 C7.89,37.09 5.92,35 4.76,34.03 C4.23,33.58 4.06,33.34 4.06,32.97 C4.06,32.31 4.8,31.86 5.39,32.16 Z M38.39,32.16 C38.74,32.34 39.62,33.12 40.69,34.19 C42.57,36.07 44.1,38.01 45.19,39.91 C45.24,40.01 45.38,40.23 45.48,40.41 C45.88,41.08 46.62,42.72 46.88,43.44 C46.92,43.56 46.97,43.71 47,43.78 C47.07,43.97 47.18,44.31 47.28,44.72 C47.34,44.92 47.41,45.17 47.44,45.28 C47.47,45.38 47.52,45.58 47.55,45.7 L47.61,45.94 L46.66,45.94 L45.7,45.94 L45.64,45.76 C45.61,45.67 45.54,45.47 45.5,45.31 C45.4,44.95 45.19,44.32 45.12,44.16 C45.1,44.09 45.03,43.91 44.97,43.75 C44.66,42.93 43.81,41.22 43.39,40.61 C43.29,40.46 43.19,40.3 43.18,40.25 C43.14,40.14 42.49,39.23 41.87,38.41 C40.89,37.11 38.91,34.99 37.76,34.03 C37.23,33.58 37.06,33.34 37.06,32.97 C37.06,32.31 37.8,31.86 38.39,32.16 Z M14.94,48.62 C14.94,49.52 14.64,49.94 13.99,49.94 C13.36,49.94 13.06,49.52 13.06,48.62 L13.06,48.06 L14,48.06 L14.94,48.06 L14.94,48.62 Z M47.94,48.62 C47.94,49.52 47.64,49.94 46.99,49.94 C46.36,49.94 46.06,49.52 46.06,48.62 L46.06,48.06 L47,48.06 L47.94,48.06 L47.94,48.62 Z"/></g><g id="ri-dog-research-af"><path d="M25.51,15.08 C25.33,15.17 25.19,15.31 25.09,15.49 L24.94,15.76 L24.94,17.99 C24.94,20.57 24.96,20.64 25.51,20.92 L25.78,21.06 L30.98,21.06 C36.52,21.06 36.36,21.07 36.71,20.76 C37.05,20.44 37.06,20.36 37.06,18 C37.06,15.64 37.05,15.56 36.71,15.24 C36.36,14.93 36.52,14.94 30.98,14.94 L25.78,14.94 L25.51,15.08 Z M34.94,18 L34.94,18.94 L31,18.94 L27.06,18.94 L27.06,18 L27.06,17.06 L31,17.06 L34.94,17.06 L34.94,18 Z"/><path d="M26.89,16.89 L26.69,17.1 L26.69,18.01 L26.69,18.91 L26.89,19.11 L27.1,19.31 L31.01,19.31 L34.91,19.31 L35.11,19.11 L35.31,18.9 L35.31,17.99 L35.31,17.09 L35.11,16.89 L34.9,16.69 L30.99,16.69 L27.09,16.69 L26.89,16.89 Z"/></g><g id="ri-dog-research-pn"><path d="M4.61,13.77 C4.39,13.88 3.89,14.36 3.78,14.59 C3.66,14.82 3.64,19.07 3.76,19.36 C3.87,19.61 4.37,20.12 4.62,20.22 C4.79,20.29 5.29,20.31 7.25,20.31 L9.68,20.31 L9.89,20.07 C10.03,19.91 10.13,19.73 10.16,19.58 C10.18,19.45 10.22,19.23 10.25,19.09 C10.28,18.96 10.34,18.63 10.38,18.38 C10.47,17.84 10.65,17.3 10.82,17.05 C10.89,16.96 10.94,16.86 10.94,16.82 C10.94,16.67 11.68,16.01 12.1,15.81 C12.75,15.47 13.38,15.31 14,15.31 C14.76,15.31 15.56,15.57 16.29,16.04 C17.07,16.56 17.69,17.86 17.69,19.01 C17.69,19.27 17.66,19.57 17.62,19.68 C17.55,19.87 17.56,19.9 17.76,20.1 L17.96,20.31 L18.59,20.31 C19.9,20.31 20.79,20.62 22.28,21.62 C22.52,21.78 22.83,21.96 22.96,22.02 C23.6,22.32 23.18,22.31 32.98,22.31 L42.16,22.31 L42.36,22.11 C42.46,22 42.56,21.84 42.59,21.75 C42.61,21.66 42.66,21.51 42.69,21.41 C42.98,20.38 43.16,19.61 43.31,18.75 C43.48,17.74 43.57,17.46 43.92,16.86 C44.16,16.45 44.62,16.04 45.16,15.77 C45.51,15.59 45.63,15.55 46.29,15.38 C46.78,15.25 47.77,15.32 48.14,15.51 C48.2,15.54 48.28,15.56 48.31,15.56 C48.42,15.56 48.95,15.82 49.29,16.04 C49.89,16.44 50.39,17.29 50.6,18.25 C50.8,19.19 50.68,19.84 49.94,21.71 C49.88,21.88 49.89,21.91 50.08,22.11 L50.28,22.31 L51.28,22.31 L52.29,22.31 L52.49,22.11 C52.6,21.99 52.69,21.88 52.69,21.86 C52.69,21.83 52.74,21.69 52.81,21.54 C52.87,21.4 53.01,21.04 53.12,20.75 C53.24,20.46 53.36,20.19 53.39,20.16 C53.41,20.12 53.44,20.06 53.44,20.02 C53.44,19.97 53.49,19.81 53.56,19.67 C53.63,19.53 53.69,19.39 53.69,19.36 C53.69,19.33 53.74,19.19 53.81,19.05 C53.88,18.91 53.94,18.76 53.94,18.74 C53.94,18.71 53.99,18.56 54.06,18.42 C54.13,18.28 54.19,18.14 54.19,18.11 C54.19,18.08 54.24,17.94 54.31,17.8 C54.38,17.66 54.44,17.51 54.44,17.49 C54.44,17.46 54.49,17.31 54.56,17.17 C54.63,17.03 54.69,16.89 54.69,16.86 C54.69,16.83 54.74,16.67 54.82,16.51 C54.89,16.35 54.97,16.16 55,16.09 C55.03,16.02 55.08,15.89 55.12,15.79 C55.16,15.7 55.22,15.56 55.25,15.47 C55.29,15.38 55.34,15.24 55.38,15.16 C55.41,15.07 55.47,14.93 55.5,14.84 C55.66,14.46 55.71,14.34 55.76,14.22 C55.81,14.13 55.78,14.07 55.62,13.9 L55.41,13.69 L30.1,13.69 C10.27,13.69 4.74,13.71 4.61,13.77 Z M36.34,15.38 C36.67,15.5 36.69,15.62 36.69,18 C36.69,20.38 36.67,20.5 36.34,20.62 C36.06,20.72 25.94,20.72 25.66,20.62 C25.33,20.5 25.31,20.38 25.31,17.96 C25.31,15.62 25.33,15.51 25.62,15.39 C25.86,15.29 36.09,15.29 36.34,15.38 Z M57.53,13.89 C57.35,14.08 57.28,14.2 57.12,14.59 C57.09,14.68 57.03,14.82 56.99,14.92 C56.95,15.02 56.89,15.16 56.87,15.23 C56.84,15.31 56.78,15.45 56.74,15.54 C56.7,15.64 56.65,15.77 56.62,15.84 C56.6,15.91 56.54,16.05 56.5,16.16 C56.46,16.26 56.4,16.4 56.38,16.47 C56.35,16.54 56.3,16.67 56.26,16.76 C56.22,16.86 56.16,17.01 56.12,17.09 C56.09,17.18 56.04,17.32 56,17.41 C55.97,17.49 55.91,17.62 55.88,17.7 C55.86,17.78 55.8,17.92 55.76,18.01 C55.67,18.24 55.58,18.46 55.51,18.64 C55.48,18.72 55.43,18.86 55.38,18.95 C55.34,19.05 55.29,19.19 55.25,19.28 C55.22,19.37 55.16,19.51 55.12,19.61 C55.08,19.71 55.03,19.84 55,19.91 C54.98,19.97 54.93,20.11 54.88,20.2 C54.84,20.3 54.78,20.45 54.74,20.54 C54.7,20.64 54.64,20.78 54.62,20.86 C54.59,20.94 54.54,21.06 54.51,21.14 C54.41,21.39 54.3,21.65 54.24,21.77 C54.19,21.87 54.22,21.93 54.38,22.1 L54.59,22.31 L55.44,22.31 L56.29,22.31 L56.48,22.11 C56.65,21.92 56.73,21.78 56.87,21.42 C56.89,21.34 56.95,21.21 56.99,21.11 C57.03,21.01 57.09,20.87 57.12,20.78 C57.16,20.69 57.22,20.55 57.26,20.45 C57.3,20.36 57.35,20.22 57.38,20.16 C57.4,20.09 57.45,19.96 57.49,19.86 C57.53,19.76 57.59,19.62 57.62,19.53 C57.66,19.44 57.72,19.31 57.75,19.22 C57.79,19.13 57.84,19 57.87,18.92 C57.89,18.84 57.95,18.71 57.99,18.61 C58.08,18.39 58.18,18.16 58.24,17.98 C58.31,17.81 58.4,17.58 58.49,17.36 C58.53,17.26 58.59,17.12 58.62,17.03 C58.66,16.94 58.72,16.8 58.76,16.7 C58.8,16.61 58.86,16.47 58.88,16.39 C58.91,16.31 58.97,16.18 59,16.09 C59.04,16.01 59.09,15.87 59.12,15.78 C59.16,15.69 59.22,15.56 59.25,15.47 C59.29,15.38 59.34,15.24 59.38,15.16 C59.41,15.07 59.46,14.94 59.49,14.86 C59.59,14.61 59.7,14.35 59.76,14.22 C59.81,14.13 59.78,14.07 59.62,13.9 L59.41,13.69 L58.56,13.69 L57.71,13.69 L57.53,13.89 Z M4.61,31.77 C4.17,31.97 3.69,32.6 3.69,32.97 C3.69,33.44 3.79,33.56 5.22,34.83 C6.25,35.74 7.59,37.21 8.49,38.41 C9.11,39.22 9.76,40.14 9.8,40.25 C9.82,40.3 9.91,40.46 10,40.59 C10.43,41.22 11.29,42.92 11.59,43.75 C11.65,43.91 11.73,44.09 11.75,44.16 C11.78,44.22 11.86,44.45 11.93,44.66 C12.03,44.99 12.09,45.19 12.23,45.68 C12.24,45.76 12.36,45.94 12.48,46.07 L12.7,46.31 L13.64,46.31 L14.59,46.31 L14.79,46.12 C15,45.91 15,45.94 14.81,45.26 C14.77,45.14 14.72,44.93 14.69,44.81 C14.63,44.57 14.45,43.97 14.38,43.78 C14.35,43.71 14.29,43.56 14.25,43.44 C14,42.72 13.25,41.08 12.86,40.41 C12.75,40.23 12.62,40.01 12.56,39.91 C11.42,37.94 9.93,36.06 7.91,34.03 C5.72,31.84 5.22,31.5 4.61,31.77 Z M37.61,31.77 C37.39,31.88 36.89,32.36 36.78,32.59 C36.54,33.06 36.71,33.47 37.38,34.08 C37.66,34.33 38.12,34.74 38.4,34.98 C39.24,35.74 40.68,37.32 41.48,38.38 C41.99,39.04 42.66,40.01 42.81,40.28 C42.89,40.42 43.01,40.61 43.07,40.69 C43.4,41.16 44.31,42.98 44.59,43.75 C44.65,43.91 44.73,44.09 44.75,44.16 C44.78,44.22 44.86,44.45 44.93,44.66 C45.03,44.99 45.09,45.19 45.23,45.68 C45.24,45.76 45.36,45.94 45.48,46.07 L45.7,46.31 L46.64,46.31 L47.59,46.31 L47.79,46.12 C48,45.91 48,45.94 47.82,45.29 C47.79,45.19 47.71,44.92 47.66,44.72 C47.55,44.31 47.44,43.97 47.38,43.78 C47.34,43.71 47.29,43.56 47.25,43.44 C47,42.72 46.25,41.08 45.86,40.41 C45.75,40.23 45.62,40.01 45.56,39.91 C44.44,37.95 42.94,36.07 40.88,34 C38.72,31.84 38.22,31.51 37.61,31.77 Z M12.89,47.89 C12.69,48.09 12.69,48.12 12.69,48.64 C12.69,49.29 12.77,49.5 13.17,49.88 C13.79,50.48 14.28,50.46 14.88,49.83 C15.26,49.43 15.31,49.28 15.31,48.63 C15.31,48.1 15.31,48.08 15.11,47.89 L14.9,47.69 L13.99,47.69 L13.09,47.69 L12.89,47.89 Z M45.89,47.89 C45.69,48.09 45.69,48.12 45.69,48.64 C45.69,49.29 45.77,49.5 46.17,49.88 C46.79,50.48 47.28,50.46 47.88,49.83 C48.26,49.43 48.31,49.28 48.31,48.63 C48.31,48.1 48.31,48.08 48.11,47.89 L47.9,47.69 L46.99,47.69 L46.09,47.69 L45.89,47.89 Z"/></g></defs><use href="#ri-dog-research-pn" fill="url(#ri-dog-research-duo)"/><use href="#ri-dog-research-pn" fill="url(#ri-dog-research-scan)" fill-opacity="0.07"/><g filter="url(#ri-dog-research-bn)" opacity="0.14"><use href="#ri-dog-research-lf" fill="#293ce4" stroke="#293ce4" stroke-width="0.4"/><use href="#ri-dog-research-af" fill="#293ce4" stroke="#293ce4" stroke-width="0.4"/></g><use href="#ri-dog-research-lf" fill="url(#ri-dog-research-ln)"/><use href="#ri-dog-research-af" fill="#293ce4"/></svg>
